<svg width="145" height="145" viewBox="0 0 145 145" fill="none" xmlns="http://www.w3.org/2000/svg">
<path fill-rule="evenodd" clip-rule="evenodd" d="M72.5 126.876C102.53 126.876 126.875 102.531 126.875 72.5006C126.875 42.4705 102.53 18.1257 72.5 18.1257C42.4699 18.1257 18.125 42.4705 18.125 72.5006C18.125 102.531 42.4699 126.876 72.5 126.876ZM72.5 132.917C105.868 132.917 132.917 105.869 132.917 72.5006C132.917 39.1325 105.868 12.084 72.5 12.084C39.1319 12.084 12.0833 39.1325 12.0833 72.5006C12.0833 105.869 39.1319 132.917 72.5 132.917Z" fill="#444444"/>
<path d="M36.25 107.634C36.25 104.513 38.5821 101.876 41.6875 101.531C64.9932 98.9517 80.1125 99.1843 103.367 101.589C104.528 101.711 105.629 102.168 106.534 102.905C107.44 103.643 108.111 104.627 108.466 105.74C108.821 106.852 108.844 108.044 108.533 109.169C108.222 110.295 107.59 111.305 106.714 112.077C79.2697 135.999 63.5855 135.67 38.1833 112.101C36.9448 110.953 36.25 109.322 36.25 107.637V107.634Z" fill="#444444"/>
<path fill-rule="evenodd" clip-rule="evenodd" d="M103.056 104.59C79.9856 102.204 65.0838 101.98 42.0167 104.533C41.2574 104.622 40.5574 104.987 40.0508 105.559C39.5441 106.132 39.2664 106.871 39.2708 107.635C39.2708 108.499 39.6303 109.318 40.2375 109.886C52.8283 121.565 62.3681 126.842 71.6934 126.875C81.052 126.908 91.1053 121.673 104.729 109.801C105.162 109.416 105.474 108.913 105.626 108.354C105.779 107.795 105.765 107.204 105.588 106.653C105.411 106.101 105.077 105.613 104.628 105.247C104.178 104.882 103.632 104.654 103.056 104.593V104.59ZM41.3552 98.5277C64.9056 95.9207 80.2454 96.1563 103.681 98.582C105.428 98.7644 107.084 99.4521 108.446 100.561C109.808 101.67 110.817 103.152 111.35 104.826C111.883 106.499 111.916 108.292 111.446 109.984C110.975 111.677 110.022 113.195 108.702 114.354C94.8813 126.401 83.372 132.962 71.6753 132.917C59.9454 132.875 48.9435 126.202 36.1322 114.315C35.2149 113.46 34.4837 112.426 33.9842 111.276C33.4847 110.126 33.2277 108.886 33.2291 107.632C33.2247 105.38 34.0514 103.206 35.5508 101.525C37.0503 99.8443 39.117 98.776 41.3552 98.5246V98.5277Z" fill="#444444"/>
<path d="M96.6666 60.4167C96.6666 66.8261 94.1205 72.9729 89.5884 77.5051C85.0563 82.0372 78.9094 84.5833 72.5 84.5833C66.0906 84.5833 59.9437 82.0372 55.4116 77.5051C50.8794 72.9729 48.3333 66.8261 48.3333 60.4167C48.3333 54.0073 50.8794 47.8604 55.4116 43.3283C59.9437 38.7961 66.0906 36.25 72.5 36.25C78.9094 36.25 85.0563 38.7961 89.5884 43.3283C94.1205 47.8604 96.6666 54.0073 96.6666 60.4167Z" fill="#444444"/>
<path fill-rule="evenodd" clip-rule="evenodd" d="M72.5 78.5417C77.307 78.5417 81.9172 76.6321 85.3163 73.233C88.7154 69.8339 90.625 65.2237 90.625 60.4167C90.625 55.6096 88.7154 50.9995 85.3163 47.6004C81.9172 44.2013 77.307 42.2917 72.5 42.2917C67.6929 42.2917 63.0828 44.2013 59.6837 47.6004C56.2846 50.9995 54.375 55.6096 54.375 60.4167C54.375 65.2237 56.2846 69.8339 59.6837 73.233C63.0828 76.6321 67.6929 78.5417 72.5 78.5417ZM72.5 84.5833C78.9094 84.5833 85.0563 82.0372 89.5884 77.5051C94.1205 72.9729 96.6666 66.8261 96.6666 60.4167C96.6666 54.0073 94.1205 47.8604 89.5884 43.3283C85.0563 38.7961 78.9094 36.25 72.5 36.25C66.0906 36.25 59.9437 38.7961 55.4116 43.3283C50.8794 47.8604 48.3333 54.0073 48.3333 60.4167C48.3333 66.8261 50.8794 72.9729 55.4116 77.5051C59.9437 82.0372 66.0906 84.5833 72.5 84.5833Z" fill="#444444"/>
</svg>
